<?xml version="1.0" encoding="utf-8"?>
<!-- Generator: Adobe Illustrator 25.2.0, SVG Export Plug-In . SVG Version: 6.00 Build 0)  -->
<svg version="1.1" id="Layer_1" xmlns="http://www.w3.org/2000/svg" xmlns:xlink="http://www.w3.org/1999/xlink" x="0px" y="0px"
	 viewBox="0 0 31.5 34.87" style="enable-background:new 0 0 31.5 34.87;" xml:space="preserve">
<style type="text/css">
	.st0{fill:none;stroke:#312783;stroke-miterlimit:10;}
	.st1{fill:#2F3242;}
	.st2{fill:#A7DAEC;}
</style>
<g>
	<path class="st1" d="M26.21,33.68c-9.89-13.48-17.99-3.95-20.51-0.23c-0.55,0.82-1.47,1.31-2.46,1.3l-0.32,0
		c-2.27-0.02-3.65-2.51-2.48-4.45C18.17,0.84,13.58,1.25,31.07,30.42c1.16,1.94-0.2,4.41-2.46,4.45h0
		C27.66,34.89,26.77,34.44,26.21,33.68z"/>
	<path class="st2" d="M4.92,28.45c-0.54,0.27,3.99-12.49,11.21-12.9c5.59-0.31,10.4,12.98,10.27,12.9
		c-2.46-1.52-6.54-7.22-10.85-6.97"/>
</g>
<g>
	<path class="st1" d="M26.21,1.19C16.32,14.66,8.22,5.14,5.69,1.42C5.14,0.6,4.22,0.11,3.23,0.11l-0.32,0
		C0.64,0.14-0.75,2.63,0.43,4.57c17.74,29.46,13.15,29.05,30.65-0.12c1.16-1.94-0.2-4.41-2.46-4.45l0,0
		C27.66-0.01,26.77,0.43,26.21,1.19z"/>
	<path class="st2" d="M26.4,6.42c-2.46,1.52-6.54,7.22-10.85,6.97c-4.03-0.23-8.78-6.02-10.63-6.97C4.38,6.15,8.41,17.7,15.64,18.11
		C21.23,18.42,26.53,6.34,26.4,6.42z"/>
</g>
</svg>
