<?xml version="1.0" encoding="utf-8"?>
<!-- Generator: Adobe Illustrator 25.2.0, SVG Export Plug-In . SVG Version: 6.00 Build 0)  -->
<svg version="1.1" xmlns="http://www.w3.org/2000/svg" xmlns:xlink="http://www.w3.org/1999/xlink" x="0px" y="0px"
	 viewBox="0 0 259.2 49.8" style="enable-background:new 0 0 259.2 49.8;" xml:space="preserve">
<style type="text/css">
	.st0{fill:#A7DAEC;}
	.st1{fill:#2F3242;}
</style>
<g id="Layer_1">
	<g>
		<path class="st0" d="M158.7,15.1c1.9,1.1,2.1,2.9,2.5,4.5c1.4,5.5,2.8,11,4.2,16.5c0.2,0.8,0.5,1.7,1,3.2c0.5-1.4,0.9-2.2,1.1-3
			c2-6.1,3.9-12.2,5.9-18.2c0.9-2.8,1.7-3.2,4.6-2.8c1.7,1.4,1.1,3,0.6,4.7c-2,6.1-4,12.1-6,18.2c-0.8,2.5-1.6,4.9-2.5,7.4
			c-0.3,0.8-0.5,1.5-0.9,2.2c-0.7,1.1-1.7,1.6-3,1.5c-1.4-0.1-2.1-0.9-2.5-2.2c-1.1-4-2.2-8.1-3.3-12.1c-0.9-3.3-1.8-6.5-2.8-10.4
			c-0.5,1.3-0.8,2-1,2.7c-1.7,5.9-3.4,11.9-5.1,17.8c-0.2,0.7-0.4,1.3-0.6,2c-0.7,1.6-1.7,2.3-3.2,2.2c-1.4-0.1-2.4-0.8-2.8-2.3
			c-0.3-1.1-0.8-2.1-1.1-3.1c-2.6-7.8-5.2-15.5-7.7-23.3c-0.3-0.8-0.5-1.7-0.7-2.6c-0.2-1.2,0.2-2.2,1.4-2.7c1.1-0.5,2.3-0.4,3,0.5
			c0.7,0.8,1.2,1.8,1.5,2.8c2,6,3.9,12,5.8,17.9c0.2,0.7,0.5,1.3,1,2.5c0.6-2,1.1-3.5,1.6-4.9c1.6-5.3,3.1-10.7,4.8-16.1
			C155,15.4,155.7,15,158.7,15.1z"/>
		<path class="st0" d="M217.8,47.4c-1.1,1.9-2.4,2.3-4.1,2.2c-4.6-0.1-9.2-0.1-13.8,0c-7.8,0.2-15.2-5-16.7-14.9
			c-1.3-8.9,3.9-17.2,12.3-19.5c12.1-3.3,22,5.5,22.2,16.1C217.9,36.8,217.8,42.2,217.8,47.4z M200.6,43.9
			c6.7-0.1,11.4-5.2,11.3-12.1c-0.1-6.7-5.1-11.8-11.5-11.7c-6.5,0.1-11.4,5.2-11.3,11.9C189.2,39.2,193.9,44,200.6,43.9z"/>
		<path class="st0" d="M23,49.6c-1.9,0-3.8-0.1-5.7,0C9.7,50.1,1.8,45.2,0.2,34.9C-1,26.7,3.3,18.7,10.9,15.8
			c11-4.2,23.2,2.7,23.8,15.7c0.2,4.8,0.1,9.6,0,14.4c0,2.6-1.1,3.6-3.7,3.7C28.4,49.7,25.7,49.6,23,49.6C23,49.6,23,49.6,23,49.6z
			 M6,32.1c0,5.1,2.6,9.5,6.8,11c8.4,3.2,16.7-2.4,15.8-12.5c-0.5-5.6-4.7-9.8-9.6-10.3C11.6,19.5,6,24.5,6,32.1z"/>
		<path class="st0" d="M70.2,16.5c2.6-2.1,3.3-2.1,5.9,0c0,10.3,0,20.8,0,31.2c-0.8,1.5-2,2-3.7,2c-4.2-0.1-8.4-0.1-12.6,0
			c-7.4,0.2-15-3.9-15.7-14.2C43.6,29.3,44,23,44,16.8c1.1-1.6,2.5-2.5,4.2-1.7c1.7,0.7,2.1,2.3,2,4c0,0.4,0,0.8,0,1.2
			c0,4.3,0,8.6,0.1,12.9c0,1.6,0.3,3.2,0.6,4.7c0.6,2.4,2.2,4,4.4,5c2.7,1.2,5.7,1.4,8.5,0.5c4.3-1.3,6.3-4.2,6.3-9
			c0.1-4.8,0-9.6,0-14.4C70.2,18.9,70.2,17.7,70.2,16.5z"/>
		<path class="st0" d="M239.7,47.5c-3.3,2.7-8,2-10.7-1.6c-1.7-2.2-2.5-4.8-2.6-7.5c-0.1-11.6-0.1-23.1,0-34.7
			c0-2.7,0.6-3.2,3.6-3.7c2.3,0.8,2.6,2.6,2.6,4.8c0,10.9,0,21.8,0,32.6c0,2.1,0.1,4.2,2.2,5.5C239.9,43.6,240.4,44,239.7,47.5z"/>
		<path class="st0" d="M249.6,0.1c2,1.2,1.9,2.9,1.9,4.6c0,10.3,0,20.6,0,30.8c0,2.5,0.1,5,2.1,7.3c1.2,0.2,2.5,0.3,3.9,0.5
			c1.3,0.9,2.2,2.1,1.5,3.8c-0.7,1.6-2.1,2-3.7,2c-3.7,0.2-6.5-1.4-8.1-4.6c-0.9-1.9-1.6-4.2-1.6-6.3c-0.2-11.5-0.1-23-0.1-34.4
			C245.6,0.9,246.4,0.2,249.6,0.1z"/>
	</g>
	<g>
		<path class="st0" d="M109.2,48.6c-9.9-13.5-18-3.9-20.5-0.2c-0.6,0.8-1.5,1.3-2.5,1.3h-0.3c-2.3,0-3.7-2.5-2.5-4.4
			c17.7-29.5,13.2-29.1,30.6,0.1c1.2,1.9-0.2,4.4-2.5,4.4l0,0C110.7,49.8,109.8,49.3,109.2,48.6z"/>
		<path class="st1" d="M87.9,43.3c-0.5,0.3,4-12.5,11.2-12.9c5.6-0.3,10.4,13,10.3,12.9c-2.5-1.5-6.5-7.2-10.8-7"/>
	</g>
	<g>
		<path class="st0" d="M109.2,16.1c-9.9,13.5-18,4-20.5,0.2c-0.6-0.8-1.5-1.3-2.5-1.3h-0.3c-2.3,0-3.7,2.5-2.5,4.5
			c17.7,29.5,13.2,29,30.6-0.1c1.2-1.9-0.2-4.4-2.5-4.5l0,0C110.7,14.9,109.8,15.3,109.2,16.1z"/>
		<path class="st1" d="M109.4,21.3c-2.5,1.5-6.5,7.2-10.8,7c-4-0.2-8.8-6-10.6-7C87.4,21,91.4,32.6,98.6,33
			C104.2,33.3,109.5,21.2,109.4,21.3z"/>
	</g>
</g>
<g id="Layer_2">
</g>
</svg>
