<?xml version="1.0" encoding="utf-8"?>
<!-- Generator: Adobe Illustrator 25.2.0, SVG Export Plug-In . SVG Version: 6.00 Build 0)  -->
<svg version="1.1" id="Layer_1" xmlns="http://www.w3.org/2000/svg" xmlns:xlink="http://www.w3.org/1999/xlink" x="0px" y="0px"
	 viewBox="0 0 302.79 117.43" style="enable-background:new 0 0 302.79 117.43;" xml:space="preserve">
<style type="text/css">
	.st0{fill:none;stroke:#312783;stroke-miterlimit:10;}
	.st1{fill:#2F3242;}
	.st2{fill:#A7DAEC;}
	.st3{font-family:'TimesNewRomanPS-ItalicMT';}
	.st4{font-size:16.5341px;}
</style>
<g>
	<path class="st1" d="M180.42,35.62c1.87,1.11,2.1,2.86,2.52,4.49c1.42,5.5,2.81,11.01,4.22,16.52c0.22,0.84,0.52,1.65,0.99,3.15
		c0.54-1.45,0.87-2.23,1.13-3.03c1.96-6.07,3.88-12.16,5.88-18.22c0.92-2.78,1.71-3.18,4.63-2.77c1.73,1.37,1.11,3.05,0.58,4.67
		c-1.99,6.07-4.01,12.12-6.02,18.18c-0.82,2.46-1.63,4.92-2.47,7.37c-0.26,0.75-0.54,1.5-0.94,2.18c-0.66,1.13-1.68,1.63-3.03,1.5
		c-1.39-0.13-2.15-0.91-2.51-2.19c-1.12-4.04-2.24-8.07-3.34-12.11c-0.89-3.25-1.76-6.5-2.81-10.41c-0.5,1.31-0.82,2-1.03,2.73
		c-1.71,5.94-3.39,11.89-5.09,17.84c-0.19,0.67-0.38,1.35-0.65,1.99c-0.71,1.64-1.67,2.28-3.18,2.17c-1.44-0.11-2.4-0.83-2.83-2.26
		c-0.32-1.05-0.75-2.06-1.1-3.1c-2.59-7.76-5.17-15.52-7.74-23.29c-0.28-0.85-0.53-1.72-0.66-2.6c-0.18-1.19,0.19-2.23,1.36-2.72
		c1.08-0.46,2.27-0.39,3.03,0.55c0.67,0.82,1.21,1.82,1.54,2.83c1.99,5.96,3.89,11.95,5.83,17.93c0.21,0.65,0.49,1.28,0.96,2.52
		c0.64-2.01,1.13-3.46,1.56-4.93c1.59-5.35,3.15-10.72,4.76-16.07C176.81,35.93,177.48,35.51,180.42,35.62z"/>
	<path class="st1" d="M239.54,67.93c-1.12,1.88-2.43,2.27-4.07,2.25c-4.59-0.07-9.19-0.13-13.78,0c-7.8,0.23-15.25-5.03-16.68-14.86
		c-1.3-8.9,3.86-17.17,12.28-19.46c12.12-3.3,21.98,5.46,22.23,16.07C239.64,57.31,239.54,62.7,239.54,67.93z M222.33,64.48
		c6.69-0.07,11.42-5.15,11.29-12.12c-0.13-6.7-5.15-11.79-11.52-11.68c-6.47,0.11-11.38,5.18-11.27,11.9
		C210.96,59.79,215.66,64.57,222.33,64.48z"/>
	<path class="st1" d="M44.78,70.16c-1.9,0-3.8-0.09-5.7,0.02c-7.61,0.45-15.55-4.47-17.1-14.69c-1.25-8.24,3.13-16.25,10.66-19.12
		c11.02-4.2,23.18,2.68,23.84,15.71c0.24,4.79,0.09,9.59,0.04,14.39c-0.03,2.6-1.07,3.62-3.65,3.68
		C50.18,70.2,47.48,70.15,44.78,70.16C44.78,70.15,44.78,70.16,44.78,70.16z M27.81,52.63c0,5.1,2.63,9.47,6.79,11.03
		c8.41,3.15,16.73-2.39,15.78-12.52c-0.52-5.63-4.67-9.84-9.61-10.35C33.32,40.01,27.8,45.05,27.81,52.63z"/>
	<path class="st1" d="M91.93,37c2.62-2.11,3.29-2.09,5.88-0.02c0,10.31,0,20.77,0,31.23c-0.76,1.54-2.02,2.03-3.68,2.01
		c-4.19-0.05-8.39-0.1-12.58,0.01c-7.43,0.19-14.98-3.88-15.71-14.18c-0.44-6.25-0.08-12.55-0.08-18.67
		c1.14-1.62,2.47-2.45,4.22-1.73c1.7,0.71,2.06,2.29,2.04,3.98c0,0.4-0.02,0.8-0.02,1.2c0.01,4.29-0.03,8.59,0.07,12.88
		c0.04,1.58,0.27,3.18,0.64,4.72c0.58,2.38,2.18,4.03,4.36,5.03c2.73,1.25,5.65,1.38,8.49,0.54c4.32-1.29,6.28-4.17,6.35-9.02
		c0.06-4.79,0.02-9.58,0.02-14.38C91.93,39.4,91.93,38.21,91.93,37z"/>
	<path class="st1" d="M261.51,68.08c-3.28,2.66-8.02,1.99-10.72-1.57c-1.68-2.21-2.54-4.78-2.56-7.52
		c-0.06-11.57-0.05-23.14-0.02-34.71c0.01-2.67,0.56-3.16,3.62-3.74c2.29,0.8,2.61,2.64,2.6,4.79c-0.03,10.87,0,21.75,0.01,32.62
		c0,2.14,0.14,4.22,2.19,5.48C261.67,64.13,262.14,64.59,261.51,68.08z"/>
	<path class="st1" d="M271.4,20.64c1.99,1.16,1.9,2.89,1.9,4.61c-0.02,10.28-0.02,20.56-0.02,30.84c0,2.51,0.11,5,2.06,7.29
		c1.16,0.16,2.52,0.35,3.89,0.53c1.33,0.93,2.25,2.08,1.53,3.78c-0.67,1.59-2.11,1.97-3.69,2.04c-3.67,0.16-6.49-1.41-8.06-4.62
		c-0.94-1.92-1.61-4.17-1.64-6.29c-0.16-11.48-0.09-22.96-0.06-34.43C267.32,21.44,268.17,20.7,271.4,20.64z"/>
</g>
<g>
	<path class="st1" d="M130.98,69.12c-9.89-13.48-17.99-3.95-20.51-0.23c-0.55,0.82-1.47,1.31-2.46,1.3l-0.32,0
		c-2.27-0.02-3.65-2.51-2.48-4.45c17.74-29.46,13.15-29.05,30.65,0.12c1.16,1.94-0.2,4.41-2.46,4.45l0,0
		C132.44,70.32,131.54,69.88,130.98,69.12z"/>
	<path class="st2" d="M109.69,63.88c-0.54,0.27,3.99-12.49,11.21-12.9c5.59-0.31,10.4,12.98,10.27,12.9
		c-2.46-1.52-6.54-7.22-10.85-6.97"/>
</g>
<g>
	<path class="st1" d="M130.98,36.63c-9.89,13.48-17.99,3.95-20.51,0.23c-0.55-0.82-1.47-1.31-2.46-1.3l-0.32,0
		c-2.27,0.02-3.65,2.51-2.48,4.45c17.74,29.46,13.15,29.05,30.65-0.12c1.16-1.94-0.2-4.41-2.46-4.45l0,0
		C132.44,35.42,131.54,35.87,130.98,36.63z"/>
	<path class="st2" d="M131.17,41.86c-2.46,1.52-6.54,7.22-10.85,6.97c-4.03-0.23-8.78-6.02-10.63-6.97
		c-0.54-0.27,3.49,11.28,10.72,11.68C126,53.85,131.31,41.77,131.17,41.86z"/>
</g>
<text transform="matrix(1 0 0 1 60.0245 91.8157)" class="st1 st3 st4">wave of the next generation</text>
</svg>
